<svg width="62" height="61" viewBox="0 0 62 61" fill="none" xmlns="http://www.w3.org/2000/svg">
<g clip-path="url(#clip0_1_109)">
<g clip-path="url(#clip1_1_109)">
<g clip-path="url(#clip2_1_109)">
<mask id="mask0_1_109" style="mask-type:luminance" maskUnits="userSpaceOnUse" x="1" y="0" width="61" height="61">
<path d="M61.1315 0.801514H1.13147V60.8015H61.1315V0.801514Z" fill="white"/>
</mask>
<g mask="url(#mask0_1_109)">
<g opacity="0.1">
<path d="M57.486 15.3176L58.865 14.1109L57.5915 12.6534L56.2928 13.7896V0.801514H54.3573V15.4831L50.4863 18.8702L46.6154 15.4831V6.60796H44.6799V13.7896L43.3812 12.6534L42.1076 14.1109L43.4867 15.3176H1.13147V46.2854H4.77695L3.39792 47.4921L4.67147 48.9496L5.97018 47.8134V60.8015H7.90566V46.1199L11.7767 42.7328L15.6476 46.1199V54.995H17.5831V47.8134L18.8818 48.9496L20.1554 47.4921L18.7763 46.2854H61.1315V15.3176H57.486ZM3.06695 17.2531H7.81857C7.40824 19.6792 5.49308 21.5944 3.06695 22.0047V17.2531ZM6.93792 44.3944V44.3499H3.06695V39.5973C5.26663 39.968 7.05889 41.586 7.6647 43.7586L6.93792 44.3944ZM59.196 44.3499H54.4444C54.8538 41.9238 56.7699 40.0086 59.196 39.5983V44.3499ZM59.196 37.6425C55.7005 38.0809 52.928 40.8544 52.4886 44.3499H16.6154V44.3944L11.7767 40.1605L9.24889 42.3728C8.19889 39.8141 5.84244 37.9918 3.06695 37.6434V23.9605C6.56244 23.5212 9.33502 20.7486 9.77437 17.2531H45.6476V17.2086L50.4863 21.4425L53.0141 19.2302C54.0641 21.7889 56.4205 23.6102 59.196 23.9596V37.6425ZM59.196 22.0057C56.9963 21.635 55.2041 20.017 54.5983 17.8444L55.325 17.2086V17.2531H59.196V22.0057Z" fill="#003057"/>
<path d="M31.1316 19.1886C24.7281 19.1886 19.5187 24.3979 19.5187 30.8015C19.5187 37.205 24.7281 42.4144 31.1316 42.4144C37.5352 42.4144 42.7445 37.205 42.7445 30.8015C42.7445 24.3979 37.5352 19.1886 31.1316 19.1886ZM31.1316 40.4789C25.7955 40.4789 21.4542 36.1376 21.4542 30.8015C21.4542 25.4654 25.7955 21.1241 31.1316 21.1241C36.4677 21.1241 40.809 25.4654 40.809 30.8015C40.809 36.1376 36.4677 40.4789 31.1316 40.4789Z" fill="#003057"/>
<path d="M32.5832 24.995H32.0993V23.0596H30.1638V24.995H29.68C27.8122 24.995 26.2929 26.5144 26.2929 28.3821C26.2929 30.2499 27.8122 31.7692 29.68 31.7692H32.5832C33.3835 31.7692 34.0348 32.4205 34.0348 33.2208C34.0348 34.0212 33.3835 34.6725 32.5832 34.6725H29.68C28.8797 34.6725 28.2284 34.0212 28.2284 33.2208V32.737H26.2929V33.2208C26.2929 35.0886 27.8122 36.6079 29.68 36.6079H30.1638V38.5434H32.0993V36.6079H32.5832C34.4509 36.6079 35.9703 35.0886 35.9703 33.2208C35.9703 31.3531 34.4509 29.8337 32.5832 29.8337H29.68C28.8797 29.8337 28.2284 29.1825 28.2284 28.3821C28.2284 27.5818 28.8797 26.9305 29.68 26.9305H32.5832C33.3835 26.9305 34.0348 27.5818 34.0348 28.3821V28.866H35.9703V28.3821C35.9703 26.5144 34.4509 24.995 32.5832 24.995Z" fill="#003057"/>
<path d="M12.7445 45.3176H10.809V47.2531H12.7445V45.3176Z" fill="#003057"/>
<path d="M12.7445 49.1886H10.809V51.1241H12.7445V49.1886Z" fill="#003057"/>
<path d="M12.7445 53.0596H10.809V54.995H12.7445V53.0596Z" fill="#003057"/>
<path d="M12.7445 56.9305H10.809V58.866H12.7445V56.9305Z" fill="#003057"/>
<path d="M16.6153 56.9305H14.6798V58.866H16.6153V56.9305Z" fill="#003057"/>
<path d="M20.4864 56.9305H18.5509V58.866H20.4864V56.9305Z" fill="#003057"/>
<path d="M24.3573 56.9305H22.4218V58.866H24.3573V56.9305Z" fill="#003057"/>
<path d="M28.2284 56.9305H26.2929V58.866H28.2284V56.9305Z" fill="#003057"/>
<path d="M32.0992 56.9305H30.1637V58.866H32.0992V56.9305Z" fill="#003057"/>
<path d="M35.9703 56.9305H34.0348V58.866H35.9703V56.9305Z" fill="#003057"/>
<path d="M39.8412 56.9305H37.9057V58.866H39.8412V56.9305Z" fill="#003057"/>
<path d="M43.7122 56.9305H41.7768V58.866H43.7122V56.9305Z" fill="#003057"/>
<path d="M47.5831 56.9305H45.6476V58.866H47.5831V56.9305Z" fill="#003057"/>
<path d="M51.4542 56.9305H49.5187V58.866H51.4542V56.9305Z" fill="#003057"/>
<path d="M55.325 56.9305H53.3896V58.866H55.325V56.9305Z" fill="#003057"/>
<path d="M59.1961 56.9305H57.2607V58.866H59.1961V56.9305Z" fill="#003057"/>
<path d="M51.4542 14.3499H49.5187V16.2854H51.4542V14.3499Z" fill="#003057"/>
<path d="M51.4542 10.4789H49.5187V12.4144H51.4542V10.4789Z" fill="#003057"/>
<path d="M51.4542 6.60803H49.5187V8.54351H51.4542V6.60803Z" fill="#003057"/>
<path d="M51.4542 2.73706H49.5187V4.67254H51.4542V2.73706Z" fill="#003057"/>
<path d="M47.5831 2.73706H45.6476V4.67254H47.5831V2.73706Z" fill="#003057"/>
<path d="M43.7122 2.73706H41.7768V4.67254H43.7122V2.73706Z" fill="#003057"/>
<path d="M39.8412 2.73706H37.9057V4.67254H39.8412V2.73706Z" fill="#003057"/>
<path d="M35.9703 2.73706H34.0348V4.67254H35.9703V2.73706Z" fill="#003057"/>
<path d="M32.0992 2.73706H30.1637V4.67254H32.0992V2.73706Z" fill="#003057"/>
<path d="M28.2284 2.73706H26.2929V4.67254H28.2284V2.73706Z" fill="#003057"/>
<path d="M24.3573 2.73706H22.4218V4.67254H24.3573V2.73706Z" fill="#003057"/>
<path d="M20.4864 2.73706H18.5509V4.67254H20.4864V2.73706Z" fill="#003057"/>
<path d="M16.6153 2.73706H14.6798V4.67254H16.6153V2.73706Z" fill="#003057"/>
<path d="M12.7445 2.73706H10.809V4.67254H12.7445V2.73706Z" fill="#003057"/>
<path d="M8.87335 2.73706H6.93787V4.67254H8.87335V2.73706Z" fill="#003057"/>
<path d="M5.0025 2.73706H3.06702V4.67254H5.0025V2.73706Z" fill="#003057"/>
<path d="M46.6153 29.8337H44.6798V31.7692H46.6153V29.8337Z" fill="#003057"/>
<path d="M50.4864 29.8337H48.5509V31.7692H50.4864V29.8337Z" fill="#003057"/>
<path d="M13.7122 29.8337H11.7768V31.7692H13.7122V29.8337Z" fill="#003057"/>
<path d="M17.5831 29.8337H15.6476V31.7692H17.5831V29.8337Z" fill="#003057"/>
</g>
</g>
</g>
</g>
</g>
<defs>
<clipPath id="clip0_1_109">
<rect width="61" height="60" fill="white" transform="translate(0.63147 0.801514)"/>
</clipPath>
<clipPath id="clip1_1_109">
<rect width="61" height="60" fill="white" transform="translate(0.63147 0.801514)"/>
</clipPath>
<clipPath id="clip2_1_109">
<rect width="61" height="60" fill="white" transform="translate(0.63147 0.801514)"/>
</clipPath>
</defs>
</svg>
