<svg width="62" height="61" viewBox="0 0 62 61" fill="none" xmlns="http://www.w3.org/2000/svg">
<g clip-path="url(#clip0_1_178)">
<g clip-path="url(#clip1_1_178)">
<g clip-path="url(#clip2_1_178)">
<mask id="mask0_1_178" style="mask-type:luminance" maskUnits="userSpaceOnUse" x="1" y="0" width="61" height="61">
<path d="M61.1315 0.801514H1.13147V60.8015H61.1315V0.801514Z" fill="white"/>
</mask>
<g mask="url(#mask0_1_178)">
<g opacity="0.1">
<path d="M53.3896 6.60803V27.8984H61.1315V6.60803H53.3896ZM59.196 25.9629H55.325V8.54351H59.196V25.9629Z" fill="#003057"/>
<path d="M43.7121 16.3976C43.0928 15.844 42.4473 15.3253 41.7767 14.8444V14.3498H41.048C37.2767 11.855 32.8183 10.4789 28.2283 10.4789H27.2605V34.6724H51.4541V33.7047C51.4541 31.7382 51.1938 29.7931 50.705 27.8982H51.4541V10.4789H43.7121V16.3976ZM29.196 32.7369V12.4356C31.9347 12.5614 34.6028 13.2263 37.0628 14.3498H34.0347V27.8982H41.7767V17.3179C42.4541 17.8773 43.1044 18.4705 43.7121 19.115V27.8982H48.7018C49.1489 29.4766 49.4228 31.0966 49.4973 32.7369H29.196ZM39.8412 16.2853V25.9627H35.9702V16.2853H39.8412ZM45.6476 12.4144H49.5186V25.9627H45.6476V12.4144Z" fill="#003057"/>
<path d="M16.8981 30.1172L8.67297 38.3423L10.0416 39.7109L18.2667 31.4858L16.8981 30.1172Z" fill="#003057"/>
<path d="M12.7443 30.8015C12.7443 29.2009 11.4418 27.8983 9.84109 27.8983C8.24045 27.8983 6.93787 29.2009 6.93787 30.8015C6.93787 32.4022 8.24045 33.7048 9.84109 33.7048C11.4418 33.7048 12.7443 32.4022 12.7443 30.8015ZM8.87335 30.8015C8.87335 30.2673 9.3069 29.8338 9.84109 29.8338C10.3753 29.8338 10.8089 30.2673 10.8089 30.8015C10.8089 31.3357 10.3753 31.7693 9.84109 31.7693C9.3069 31.7693 8.87335 31.3357 8.87335 30.8015Z" fill="#003057"/>
<path d="M17.583 35.6403C15.9823 35.6403 14.6797 36.9429 14.6797 38.5436C14.6797 40.1442 15.9823 41.4468 17.583 41.4468C19.1836 41.4468 20.4862 40.1442 20.4862 38.5436C20.4862 36.9429 19.1836 35.6403 17.583 35.6403ZM17.583 39.5113C17.0488 39.5113 16.6152 39.0778 16.6152 38.5436C16.6152 38.0094 17.0488 37.5758 17.583 37.5758C18.1172 37.5758 18.5507 38.0094 18.5507 38.5436C18.5507 39.0778 18.1172 39.5113 17.583 39.5113Z" fill="#003057"/>
<path d="M43.5738 50.585C46.1886 46.7325 47.5831 42.2586 47.5831 37.5757V36.6079H25.3251V14.3499H24.3573C23.4012 14.3499 22.4286 14.4341 21.4541 14.557V0.801514H1.13147V14.3499H13.3115L15.2015 16.2399C6.72986 19.8776 1.13147 28.2641 1.13147 37.5757C1.13147 50.3818 11.5512 60.8015 24.3573 60.8015C29.9731 60.8015 35.3228 58.7712 39.5499 55.1044L42.5441 58.0986C43.1325 58.687 43.9067 58.9821 44.6799 58.9821C45.4531 58.9821 46.2273 58.687 46.8157 58.0986C47.9934 56.9209 47.9934 55.0047 46.8157 53.827L43.5738 50.585ZM14.1128 12.4144H3.06695V2.73699H19.5186V17.8202L14.1128 12.4144ZM24.3573 58.866C12.6176 58.866 3.06695 49.3154 3.06695 37.5757C3.06695 28.778 8.52115 20.885 16.6899 17.7283L21.4541 22.4925V16.4983C22.1015 16.4092 22.7489 16.3376 23.3896 16.3076V38.5434H45.6263C45.457 42.3612 44.2715 46.0028 42.1831 49.1944L40.6396 47.6509C40.746 47.2125 40.8089 46.7567 40.8089 46.2854C40.8089 43.0831 38.2047 40.4789 35.0025 40.4789C31.8002 40.4789 29.196 43.0831 29.196 46.2854C29.196 49.4876 31.8002 52.0918 35.0025 52.0918C35.4738 52.0918 35.9296 52.0289 36.368 51.9225L38.1776 53.7321C34.3202 57.038 29.4592 58.866 24.3573 58.866ZM38.8734 46.2854C38.8734 48.4202 37.1373 50.1563 35.0025 50.1563C32.8676 50.1563 31.1315 48.4202 31.1315 46.2854C31.1315 44.1505 32.8676 42.4144 35.0025 42.4144C37.1373 42.4144 38.8734 44.1505 38.8734 46.2854ZM45.4473 56.7302C45.0234 57.1541 44.3363 57.1541 43.9125 56.7302L38.2667 51.0844C38.8696 50.6731 39.3902 50.1525 39.8015 49.5496L45.4473 55.1954C45.8702 55.6192 45.8702 56.3063 45.4473 56.7302Z" fill="#003057"/>
<path d="M17.5831 4.67249H5.00244V6.60798H17.5831V4.67249Z" fill="#003057"/>
<path d="M17.5831 8.54346H5.00244V10.4789H17.5831V8.54346Z" fill="#003057"/>
<path d="M35.9702 45.3176H34.0347V47.2531H35.9702V45.3176Z" fill="#003057"/>
<path d="M27.2606 45.3176H25.3251V47.2531H27.2606V45.3176Z" fill="#003057"/>
<path d="M23.3895 45.3176H21.454V47.2531H23.3895V45.3176Z" fill="#003057"/>
<path d="M19.5186 45.3176H17.5832V47.2531H19.5186V45.3176Z" fill="#003057"/>
</g>
</g>
</g>
</g>
</g>
<defs>
<clipPath id="clip0_1_178">
<rect width="61" height="60" fill="white" transform="translate(0.63147 0.801514)"/>
</clipPath>
<clipPath id="clip1_1_178">
<rect width="61" height="60" fill="white" transform="translate(0.63147 0.801514)"/>
</clipPath>
<clipPath id="clip2_1_178">
<rect width="61" height="60" fill="white" transform="translate(0.63147 0.801514)"/>
</clipPath>
</defs>
</svg>
