<svg width="62" height="61" viewBox="0 0 62 61" fill="none" xmlns="http://www.w3.org/2000/svg">
<g clip-path="url(#clip0_1_160)">
<g clip-path="url(#clip1_1_160)">
<g clip-path="url(#clip2_1_160)">
<mask id="mask0_1_160" style="mask-type:luminance" maskUnits="userSpaceOnUse" x="1" y="0" width="61" height="61">
<path d="M61.1315 0.801514H1.13147V60.8015H61.1315V0.801514Z" fill="white"/>
</mask>
<g mask="url(#mask0_1_160)">
<g opacity="0.1">
<path d="M56.0683 11.4467C56.2105 10.8234 56.2928 10.177 56.2928 9.51119C56.2928 4.70828 52.386 0.801514 47.5831 0.801514C42.7802 0.801514 38.8734 4.70828 38.8734 9.51119C38.8734 10.177 38.9557 10.8234 39.0979 11.4467H5.00244V22.0918V23.0596V25.6541C2.66147 26.765 1.13147 29.1418 1.13147 31.7692C1.13147 34.3967 2.66147 36.7734 5.00244 37.8844V40.4789V41.4467V52.0918H61.1315V11.4467H56.0683ZM47.5831 2.73699C51.3176 2.73699 54.3573 5.77667 54.3573 9.51119C54.3573 13.2457 51.3176 16.2854 47.5831 16.2854C43.8486 16.2854 40.8089 13.2457 40.8089 9.51119C40.8089 5.77667 43.8486 2.73699 47.5831 2.73699ZM10.8089 22.0918V17.2531H43.6105C44.8028 17.8676 46.1509 18.2209 47.5831 18.2209C49.0154 18.2209 50.3625 17.8676 51.5557 17.2531H55.325V46.2854H10.8089V41.4467H12.7444V22.0918H10.8089ZM6.93792 13.3821H39.7928C40.145 14.0876 40.5883 14.737 41.1099 15.3176H8.87341V22.0918H6.93792V13.3821ZM3.06695 31.7692C3.06695 29.7273 4.36373 27.8954 6.29341 27.2121L6.93792 26.9847V24.0273H10.8089V39.5112H6.93792V36.5538L6.29341 36.3263C4.36373 35.6431 3.06695 33.8112 3.06695 31.7692ZM59.196 50.1563H6.93792V41.4467H8.87341V48.2209H57.2605V15.3176H54.0563C54.5779 14.737 55.0212 14.0876 55.3734 13.3821H59.196V50.1563Z" fill="#003057"/>
<path d="M25.325 35.6402H21.4541V32.737H33.067V35.6402H29.196V43.3822H38.8734V35.6402H35.0025V32.737H46.6154V35.6402H42.7444V43.3822H52.4218V35.6402H48.5508V30.8015H35.0025V27.8983H38.8734V20.1564H29.196V27.8983H33.067V30.8015H19.5186V35.6402H15.6476V43.3822H25.325V35.6402ZM50.4863 37.5757V41.4467H44.6799V37.5757H50.4863ZM31.1315 25.9628V22.0918H36.9379V25.9628H31.1315ZM36.9379 37.5757V41.4467H31.1315V37.5757H36.9379ZM23.3895 41.4467H17.5831V37.5757H23.3895V41.4467Z" fill="#003057"/>
<path d="M7.90567 54.9951C6.30502 54.9951 5.00244 56.2977 5.00244 57.8983C5.00244 59.499 6.30502 60.8016 7.90567 60.8016H43.1451L46.0483 57.8983L43.1451 54.9951H7.90567ZM9.84115 58.8661H7.90567C7.37147 58.8661 6.93793 58.4325 6.93793 57.8983C6.93793 57.3641 7.37147 56.9306 7.90567 56.9306H9.84115V58.8661ZM13.7121 58.8661H11.7767V56.9306H13.7121V58.8661ZM42.3438 58.8661H15.6476V56.9306H42.3438L43.3115 57.8983L42.3438 58.8661Z" fill="#003057"/>
<path d="M48.5509 24.0273H46.6154V25.9628H48.5509V24.0273Z" fill="#003057"/>
<path d="M48.5509 20.1564H46.6154V22.0918H48.5509V20.1564Z" fill="#003057"/>
<path d="M48.5509 12.4144H46.6154C46.0812 12.4144 45.6477 11.9809 45.6477 11.4467H43.7122C43.7122 13.0473 45.0148 14.3499 46.6154 14.3499H48.5509C50.1515 14.3499 51.4541 13.0473 51.4541 11.4467C51.4541 9.84604 50.1515 8.54346 48.5509 8.54346H46.6154C46.0812 8.54346 45.6477 8.10991 45.6477 7.57572C45.6477 7.04152 46.0812 6.60798 46.6154 6.60798H48.5509C49.0851 6.60798 49.5186 7.04152 49.5186 7.57572H51.4541C51.4541 5.97507 50.1515 4.67249 48.5509 4.67249H46.6154C45.0148 4.67249 43.7122 5.97507 43.7122 7.57572C43.7122 9.17636 45.0148 10.4789 46.6154 10.4789H48.5509C49.0851 10.4789 49.5186 10.9125 49.5186 11.4467C49.5186 11.9809 49.0851 12.4144 48.5509 12.4144Z" fill="#003057"/>
</g>
</g>
</g>
</g>
</g>
<defs>
<clipPath id="clip0_1_160">
<rect width="61" height="60" fill="white" transform="translate(0.63147 0.801514)"/>
</clipPath>
<clipPath id="clip1_1_160">
<rect width="61" height="60" fill="white" transform="translate(0.63147 0.801514)"/>
</clipPath>
<clipPath id="clip2_1_160">
<rect width="61" height="60" fill="white" transform="translate(0.63147 0.801514)"/>
</clipPath>
</defs>
</svg>
