<svg width="62" height="61" viewBox="0 0 62 61" fill="none" xmlns="http://www.w3.org/2000/svg">
<g clip-path="url(#clip0_1_72)">
<g clip-path="url(#clip1_1_72)">
<g clip-path="url(#clip2_1_72)">
<mask id="mask0_1_72" style="mask-type:luminance" maskUnits="userSpaceOnUse" x="1" y="0" width="61" height="61">
<path d="M61.1315 0.801514H1.13147V60.8015H61.1315V0.801514Z" fill="white"/>
</mask>
<g mask="url(#mask0_1_72)">
<g opacity="0.1">
<path d="M46.6154 20.6402C46.6154 12.1028 39.6689 5.15637 31.1315 5.15637C22.5941 5.15637 15.6476 12.1028 15.6476 20.6402C15.6476 29.1776 22.5941 36.1241 31.1315 36.1241C39.6689 36.1241 46.6154 29.1776 46.6154 20.6402ZM31.1315 34.1886C23.6605 34.1886 17.5831 28.1112 17.5831 20.6402C17.5831 13.1693 23.6605 7.09185 31.1315 7.09185C38.6025 7.09185 44.6799 13.1693 44.6799 20.6402C44.6799 28.1112 38.6025 34.1886 31.1315 34.1886Z" fill="#003057"/>
<path d="M50.4864 19.6725H48.5509V21.608H50.4864V19.6725Z" fill="#003057"/>
<path d="M54.3573 19.6725H52.4218V21.608H54.3573V19.6725Z" fill="#003057"/>
<path d="M9.84112 19.6725H7.90564V21.608H9.84112V19.6725Z" fill="#003057"/>
<path d="M13.7122 19.6725H11.7768V21.608H13.7122V19.6725Z" fill="#003057"/>
<path d="M32.0992 38.0596H30.1637V39.995H32.0992V38.0596Z" fill="#003057"/>
<path d="M32.0992 1.2854H30.1637V3.22088H32.0992V1.2854Z" fill="#003057"/>
<path d="M48.3118 17.889L50.2231 17.5851C48.9079 9.30891 42.4627 2.86472 34.1876 1.54956L33.8837 3.46085C41.3295 4.6444 47.1272 10.4421 48.3118 17.889Z" fill="#003057"/>
<path d="M28.3803 3.45987L28.0764 1.54858C19.8003 2.86374 13.3561 9.3089 12.0409 17.5841L13.9522 17.888C15.1358 10.4421 20.9335 4.64439 28.3803 3.45987Z" fill="#003057"/>
<path d="M28.3803 37.8205C20.9335 36.636 15.1348 30.8382 13.9512 23.3915L12.0399 23.6953C13.3551 31.9715 19.8003 38.4157 28.0754 39.7308L28.3803 37.8205Z" fill="#003057"/>
<path d="M48.3118 23.3915C47.1272 30.8382 41.3295 36.6369 33.8827 37.8205L34.1866 39.7318C42.4627 38.4166 48.9069 31.9715 50.2221 23.6963L48.3118 23.3915Z" fill="#003057"/>
<path d="M57.2605 50.738V46.7692H32.0992V41.9305H30.1638V46.7692H5.00244V50.738C2.79695 51.1879 1.13147 53.1428 1.13147 55.4789C1.13147 58.147 3.30212 60.3176 5.97018 60.3176C8.63824 60.3176 10.8089 58.147 10.8089 55.4789C10.8089 53.1428 9.14341 51.1879 6.93792 50.738V48.7047H30.1638V50.738C27.9583 51.1879 26.2928 53.1418 26.2928 55.4789C26.2928 58.147 28.4634 60.3176 31.1315 60.3176C33.7996 60.3176 35.9702 58.147 35.9702 55.4789C35.9702 53.1428 34.3047 51.1879 32.0992 50.738V48.7047H55.325V50.738C53.1196 51.1879 51.4541 53.1418 51.4541 55.4789C51.4541 58.147 53.6247 60.3176 56.2928 60.3176C58.9609 60.3176 61.1315 58.147 61.1315 55.4789C61.1315 53.1428 59.466 51.1879 57.2605 50.738ZM8.87341 55.4789C8.87341 57.0796 7.57082 58.3821 5.97018 58.3821C4.36953 58.3821 3.06695 57.0796 3.06695 55.4789C3.06695 53.8783 4.36953 52.5757 5.97018 52.5757C7.57082 52.5757 8.87341 53.8783 8.87341 55.4789ZM34.0347 55.4789C34.0347 57.0796 32.7321 58.3821 31.1315 58.3821C29.5309 58.3821 28.2283 57.0796 28.2283 55.4789C28.2283 53.8783 29.5309 52.5757 31.1315 52.5757C32.7321 52.5757 34.0347 53.8783 34.0347 55.4789ZM56.2928 58.3821C54.6921 58.3821 53.3896 57.0796 53.3896 55.4789C53.3896 53.8783 54.6921 52.5757 56.2928 52.5757C57.8934 52.5757 59.196 53.8783 59.196 55.4789C59.196 57.0796 57.8934 58.3821 56.2928 58.3821Z" fill="#003057"/>
<path d="M54.3573 27.4144H52.4218V37.0918H54.3573V27.4144Z" fill="#003057"/>
<path d="M54.3573 39.0273H52.4218V40.9628H54.3573V39.0273Z" fill="#003057"/>
<path d="M50.4864 34.1886H48.5509V39.0273H50.4864V34.1886Z" fill="#003057"/>
<path d="M50.4864 40.9628H48.5509V42.8982H50.4864V40.9628Z" fill="#003057"/>
<path d="M46.6153 39.0273H44.6798V40.9628H46.6153V39.0273Z" fill="#003057"/>
<path d="M46.6153 42.8983H44.6798V44.8338H46.6153V42.8983Z" fill="#003057"/>
<path d="M9.84112 27.4144H7.90564V37.0918H9.84112V27.4144Z" fill="#003057"/>
<path d="M9.84112 39.0273H7.90564V40.9628H9.84112V39.0273Z" fill="#003057"/>
<path d="M13.7122 34.1886H11.7768V39.0273H13.7122V34.1886Z" fill="#003057"/>
<path d="M13.7122 40.9628H11.7768V42.8982H13.7122V40.9628Z" fill="#003057"/>
<path d="M17.5831 39.0273H15.6476V40.9628H17.5831V39.0273Z" fill="#003057"/>
<path d="M17.5831 42.8983H15.6476V44.8338H17.5831V42.8983Z" fill="#003057"/>
<path d="M32.5831 10.9628H32.0993V9.02734H30.1638V10.9628H29.6799C26.7457 10.9628 24.3573 13.3512 24.3573 16.2854C24.3573 19.2196 26.7457 21.608 29.6799 21.608H32.5831C34.4509 21.608 35.9702 23.1273 35.9702 24.9951C35.9702 26.8628 34.4509 28.3822 32.5831 28.3822H29.6799C27.8122 28.3822 26.2928 26.8628 26.2928 24.9951V24.5112H24.3573V24.9951C24.3573 27.9293 26.7457 30.3177 29.6799 30.3177H30.1638V32.2531H32.0993V30.3177H32.5831C35.5173 30.3177 37.9057 27.9293 37.9057 24.9951C37.9057 22.0609 35.5173 19.6725 32.5831 19.6725H29.6799C27.8122 19.6725 26.2928 18.1531 26.2928 16.2854C26.2928 14.4177 27.8122 12.8983 29.6799 12.8983H32.5831C34.4509 12.8983 35.9702 14.4177 35.9702 16.2854V16.7693H37.9057V16.2854C37.9057 13.3512 35.5173 10.9628 32.5831 10.9628Z" fill="#003057"/>
</g>
</g>
</g>
</g>
</g>
<defs>
<clipPath id="clip0_1_72">
<rect width="61" height="60" fill="white" transform="translate(0.63147 0.801514)"/>
</clipPath>
<clipPath id="clip1_1_72">
<rect width="61" height="60" fill="white" transform="translate(0.63147 0.801514)"/>
</clipPath>
<clipPath id="clip2_1_72">
<rect width="61" height="60" fill="white" transform="translate(0.63147 0.801514)"/>
</clipPath>
</defs>
</svg>
