<svg width="43" height="43" viewBox="0 0 43 43" fill="none" xmlns="http://www.w3.org/2000/svg">
<g clip-path="url(#clip0_1_254)">
<g clip-path="url(#clip1_1_254)">
<path d="M37.6315 0.921387H5.63147C2.87005 0.921387 0.63147 3.15996 0.63147 5.92139V37.9214C0.63147 40.6828 2.87005 42.9214 5.63147 42.9214H37.6315C40.3929 42.9214 42.6315 40.6828 42.6315 37.9214V5.92139C42.6315 3.15996 40.3929 0.921387 37.6315 0.921387Z" fill="#003057"/>
<path d="M30.4851 22.2751C30.6803 22.0798 30.6803 21.7632 30.4851 21.5679L27.3031 18.386C27.1078 18.1907 26.7912 18.1907 26.596 18.386C26.4007 18.5812 26.4007 18.8978 26.596 19.0931L29.4244 21.9215L26.596 24.7499C26.4007 24.9452 26.4007 25.2618 26.596 25.457C26.7912 25.6523 27.1078 25.6523 27.3031 25.457L30.4851 22.2751ZM13.1315 22.4215H30.1315V21.4215H13.1315V22.4215Z" fill="white"/>
</g>
</g>
<defs>
<clipPath id="clip0_1_254">
<rect width="42" height="42" fill="white" transform="translate(0.63147 0.921387)"/>
</clipPath>
<clipPath id="clip1_1_254">
<rect width="42" height="42" fill="white" transform="translate(0.63147 0.921387)"/>
</clipPath>
</defs>
</svg>
