<svg width="22" height="21" viewBox="0 0 22 21" fill="none" xmlns="http://www.w3.org/2000/svg">
<g clip-path="url(#clip0_1_654)">
<g clip-path="url(#clip1_1_654)">
<g clip-path="url(#clip2_1_654)">
<path fill-rule="evenodd" clip-rule="evenodd" d="M6.13147 1.78564C4.75076 1.78564 3.63147 2.90494 3.63147 4.28565V17.6189C3.63147 18.9997 4.75076 20.1189 6.13147 20.1189H16.1315C17.5122 20.1189 18.6315 18.9997 18.6315 17.6189V8.30934C18.6315 7.6463 18.3681 7.01041 17.8992 6.54157L13.8756 2.51788C13.4067 2.04904 12.7708 1.78564 12.1078 1.78564H6.13147ZM5.29814 4.28565C5.29814 3.82541 5.67124 3.45231 6.13147 3.45231H11.1315V7.61898C11.1315 8.53945 11.8777 9.28565 12.7982 9.28565H16.9648V17.6189C16.9648 18.0792 16.5917 18.4523 16.1315 18.4523H6.13147C5.67124 18.4523 5.29814 18.0792 5.29814 17.6189V4.28565ZM16.6197 7.61898L12.7982 3.79749V7.61898H16.6197Z" fill="#03014A"/>
</g>
</g>
</g>
<defs>
<clipPath id="clip0_1_654">
<rect width="21" height="20" fill="white" transform="translate(0.63147 0.952148)"/>
</clipPath>
<clipPath id="clip1_1_654">
<rect width="21" height="20" fill="white" transform="translate(0.63147 0.952148)"/>
</clipPath>
<clipPath id="clip2_1_654">
<rect width="21" height="20" fill="white" transform="translate(0.63147 0.952148)"/>
</clipPath>
</defs>
</svg>
