<svg width="57" height="57" viewBox="0 0 57 57" fill="none" xmlns="http://www.w3.org/2000/svg">
<g clip-path="url(#clip0_1_329)">
<g clip-path="url(#clip1_1_329)">
<g clip-path="url(#clip2_1_329)">
<path d="M0.461487 5.28174C0.461487 2.52032 2.70007 0.281738 5.46149 0.281738H51.4615C54.2229 0.281738 56.4615 2.52032 56.4615 5.28174V51.2817C56.4615 54.0431 54.2229 56.2817 51.4615 56.2817H5.46149C2.70007 56.2817 0.461487 54.0431 0.461487 51.2817V5.28174Z" fill="white"/>
<path d="M28.4654 16.2817C21.8364 16.2817 16.4615 21.6547 16.4615 28.2817C16.4615 34.9087 21.8364 40.2817 28.4654 40.2817C38.4754 40.2817 40.7306 30.9887 39.7916 26.2817H38.4615H36.1939H28.4615V30.2817H36.1998C35.3102 33.73 32.1875 36.2817 28.4615 36.2817C24.0435 36.2817 20.4615 32.6997 20.4615 28.2817C20.4615 23.8637 24.0435 20.2817 28.4615 20.2817C30.4705 20.2817 32.3006 21.0274 33.7056 22.2505L36.5474 19.4106C34.4134 17.4666 31.5784 16.2817 28.4654 16.2817Z" fill="#03014A"/>
</g>
</g>
</g>
<defs>
<clipPath id="clip0_1_329">
<rect width="56" height="56" fill="white" transform="translate(0.461487 0.281738)"/>
</clipPath>
<clipPath id="clip1_1_329">
<rect width="56" height="56" fill="white" transform="translate(0.461487 0.281738)"/>
</clipPath>
<clipPath id="clip2_1_329">
<rect width="56" height="56" fill="white" transform="translate(0.461487 0.281738)"/>
</clipPath>
</defs>
</svg>
