<svg width="22" height="21" viewBox="0 0 22 21" fill="none" xmlns="http://www.w3.org/2000/svg">
<path d="M17.569 0.611588H4.25485C2.41501 0.611588 0.911926 2.11467 0.911926 3.9545V17.2687C0.911926 19.1085 2.41501 20.6116 4.25485 20.6116H17.569C19.4088 20.6116 20.9119 19.1085 20.9119 17.2687V3.9545C20.9119 2.10645 19.4171 0.611588 17.569 0.611588Z" fill="#887E72"/>
<path d="M10.9161 5.47401C9.54445 5.47401 8.25493 6.00789 7.28573 6.97709C6.31653 7.94629 5.78265 9.23582 5.78265 10.6075C5.78265 11.9792 6.31653 13.2687 7.28573 14.2379C8.25493 15.2071 9.54445 15.741 10.9161 15.741C12.2878 15.741 13.5773 15.2071 14.5465 14.2379C15.5157 13.2687 16.0496 11.9792 16.0496 10.6075C16.0496 9.23582 15.5157 7.94629 14.5465 6.97709C13.5691 6.00789 12.2878 5.47401 10.9161 5.47401ZM10.9161 14.6486C8.69024 14.6486 6.87505 12.8416 6.87505 10.6075C6.87505 8.38161 8.68203 6.56641 10.9161 6.56641C13.142 6.56641 14.9572 8.37339 14.9572 10.6075C14.949 12.8334 13.142 14.6486 10.9161 14.6486Z" fill="white"/>
<path d="M17.0503 15.9097C17.5947 15.9097 18.0359 16.3509 18.0359 16.8953C18.0359 17.4397 17.5947 17.881 17.0503 17.881C16.5059 17.881 16.0646 17.4397 16.0646 16.8953C16.0646 16.3509 16.5059 15.9097 17.0503 15.9097Z" fill="white"/>
</svg>
