<svg width="151" height="27" viewBox="0 0 151 27" fill="none" xmlns="http://www.w3.org/2000/svg">
<g clip-path="url(#clip0_1_335)">
<g clip-path="url(#clip1_1_335)">
<g clip-path="url(#clip2_1_335)">
<path d="M14.0409 1.64947C13.635 0.972332 12.6414 1.01047 12.2886 1.71674L9.39552 7.50854C9.25251 7.79484 8.98113 7.99539 8.66547 8.04805L1.63789 9.22048C0.835904 9.35428 0.52035 10.3384 1.09499 10.9136L6.40679 16.2306C6.65486 16.479 6.75458 16.8392 6.66953 17.1797L4.94755 24.0745C4.7447 24.8867 5.56994 25.5737 6.33189 25.227L12.6893 22.3344C12.9524 22.2147 13.2545 22.2147 13.5176 22.3344L20.0526 25.3078C20.7812 25.6394 21.5846 25.023 21.4531 24.2334L20.2718 17.1381C20.2188 16.8197 20.3226 16.4954 20.5507 16.2671L25.8989 10.9136C26.4736 10.3383 26.158 9.35428 25.356 9.22048L18.2817 8.04025C17.9926 7.99202 17.7392 7.81939 17.5885 7.568L14.0409 1.64947Z" fill="#F8BA05"/>
<path d="M45.5248 1.64947C45.1189 0.972332 44.1252 1.01047 43.7725 1.71674L40.8794 7.50854C40.7364 7.79484 40.465 7.99539 40.1494 8.04805L33.1218 9.22048C32.3198 9.35428 32.0043 10.3384 32.5789 10.9136L37.8907 16.2306C38.1388 16.479 38.2385 16.8392 38.1535 17.1797L36.4315 24.0745C36.2286 24.8867 37.0539 25.5737 37.8158 25.227L44.1732 22.3344C44.4363 22.2147 44.7383 22.2147 45.0014 22.3344L51.5364 25.3078C52.2651 25.6394 53.0685 25.023 52.937 24.2334L51.7556 17.1381C51.7026 16.8197 51.8065 16.4954 52.0346 16.2671L57.3828 10.9136C57.9574 10.3383 57.6419 9.35428 56.8399 9.22048L49.7655 8.04025C49.4764 7.99202 49.2231 7.81939 49.0724 7.568L45.5248 1.64947Z" fill="#F8BA05"/>
<path d="M77.0087 1.64947C76.6028 0.972332 75.6091 1.01047 75.2563 1.71674L72.3633 7.50854C72.2203 7.79484 71.9489 7.99539 71.6333 8.04805L64.6057 9.22048C63.8037 9.35428 63.4881 10.3384 64.0628 10.9136L69.3746 16.2306C69.6227 16.479 69.7224 16.8392 69.6373 17.1797L67.9153 24.0745C67.7125 24.8867 68.5377 25.5737 69.2997 25.227L75.657 22.3344C75.9201 22.2147 76.2222 22.2147 76.4853 22.3344L83.0203 25.3078C83.7489 25.6394 84.5524 25.023 84.4209 24.2334L83.2395 17.1381C83.1865 16.8197 83.2904 16.4954 83.5185 16.2671L88.8667 10.9136C89.4413 10.3383 89.1257 9.35428 88.3238 9.22048L81.2494 8.04025C80.9603 7.99202 80.7069 7.81939 80.5563 7.568L77.0087 1.64947Z" fill="#F8BA05"/>
<path d="M108.492 1.64947C108.086 0.972332 107.092 1.01047 106.74 1.71673L103.847 7.50854C103.704 7.79484 103.432 7.99539 103.117 8.04805L96.0895 9.22048C95.2876 9.35428 94.972 10.3384 95.5466 10.9136L100.858 16.2306C101.106 16.479 101.206 16.8392 101.121 17.1797L99.3992 24.0745C99.1964 24.8867 100.022 25.5737 100.783 25.227L107.14 22.3344C107.404 22.2147 107.706 22.2147 107.969 22.3344L114.504 25.3078C115.232 25.6394 116.036 25.023 115.904 24.2334L114.723 17.1381C114.67 16.8197 114.774 16.4954 115.002 16.2671L120.35 10.9136C120.925 10.3383 120.609 9.35428 119.807 9.22048L112.733 8.04025C112.444 7.99202 112.19 7.81939 112.04 7.568L108.492 1.64947Z" fill="#F8BA05"/>
<path d="M139.302 1.76691C138.903 1.06088 137.873 1.09915 137.527 1.83287L134.857 7.49613C134.719 7.78977 134.447 7.99794 134.127 8.05445L127.547 9.21756C126.764 9.35603 126.448 10.3095 126.993 10.8884L132.039 16.2395C132.269 16.4839 132.362 16.8279 132.285 17.1549L130.66 24.0449C130.467 24.8637 131.31 25.5405 132.068 25.1751L137.917 22.3556C138.191 22.2233 138.511 22.2233 138.785 22.3556L144.804 25.2572C145.53 25.6075 146.351 24.9979 146.226 24.2012L145.113 17.1154C145.065 16.8098 145.161 16.4993 145.373 16.2743L150.451 10.8884C150.997 10.3095 150.681 9.35603 149.898 9.21756L143.272 8.0464C142.978 7.99444 142.723 7.81387 142.576 7.55405L139.302 1.76691Z" fill="#F8BA05"/>
</g>
</g>
</g>
<defs>
<clipPath id="clip0_1_335">
<rect width="150" height="26" fill="white" transform="translate(0.801453 0.281738)"/>
</clipPath>
<clipPath id="clip1_1_335">
<rect width="150" height="26" fill="white" transform="translate(0.801453 0.281738)"/>
</clipPath>
<clipPath id="clip2_1_335">
<rect width="150" height="26" fill="white" transform="translate(0.801453 0.281738)"/>
</clipPath>
</defs>
</svg>
