<svg width="49" height="49" viewBox="0 0 49 49" fill="none" xmlns="http://www.w3.org/2000/svg">
<rect x="1.13147" y="1.36182" width="47" height="47" rx="4.5" stroke="#003057"/>
<path d="M32.62 36.8618H16.643C14.4352 36.8618 12.6315 35.0581 12.6315 32.8503V16.8733C12.6315 14.6655 14.4352 12.8618 16.643 12.8618H32.62C34.8278 12.8618 36.6315 14.6655 36.6315 16.8733V32.8503C36.6315 35.068 34.8377 36.8618 32.62 36.8618Z" fill="#003057"/>
<path d="M24.6364 31.0273C22.9904 31.0273 21.4429 30.3867 20.2799 29.2236C19.1168 28.0606 18.4762 26.5132 18.4762 24.8672C18.4762 23.2212 19.1168 21.6738 20.2799 20.5107C21.4429 19.3477 22.9904 18.707 24.6364 18.707C26.2824 18.707 27.8298 19.3477 28.9929 20.5107C30.1559 21.6738 30.7966 23.2212 30.7966 24.8672C30.7966 26.5132 30.1559 28.0606 28.9929 29.2236C27.82 30.3867 26.2824 31.0273 24.6364 31.0273ZM24.6364 20.0179C21.9653 20.0179 19.7871 22.1863 19.7871 24.8672C19.7871 27.5382 21.9555 29.7165 24.6364 29.7165C27.3074 29.7165 29.4857 27.5481 29.4857 24.8672C29.4758 22.1962 27.3074 20.0179 24.6364 20.0179Z" fill="white"/>
<path d="M31.9974 18.5042C32.6506 18.5042 33.1802 17.9747 33.1802 17.3215C33.1802 16.6682 32.6506 16.1387 31.9974 16.1387C31.3442 16.1387 30.8146 16.6682 30.8146 17.3215C30.8146 17.9747 31.3442 18.5042 31.9974 18.5042Z" fill="white"/>
</svg>
