<svg width="49" height="49" viewBox="0 0 49 49" fill="none" xmlns="http://www.w3.org/2000/svg">
<rect x="1.13147" y="1.36182" width="47" height="47" rx="4.5" stroke="#003057"/>
<path d="M36.3211 14.6643C35.9117 14.3144 35.2687 14.2644 34.6039 14.5334H34.6028C33.9035 14.8161 14.8097 23.0683 14.0324 23.4054C13.891 23.4549 12.6563 23.9191 12.7835 24.9531C12.897 25.8854 13.8894 26.2715 14.0105 26.316L18.8648 27.9908C19.1869 29.071 20.3741 33.0563 20.6366 33.9077C20.8004 34.4384 21.0673 35.1358 21.5351 35.2794C21.9456 35.4389 22.3539 35.2931 22.6181 35.0841L25.5859 32.3105L30.3768 36.0752L30.4909 36.144C30.8162 36.2892 31.1279 36.3618 31.4254 36.3618C31.6552 36.3618 31.8757 36.3184 32.0864 36.2314C32.8042 35.9344 33.0913 35.2453 33.1213 35.1672L36.6999 16.4248C36.9183 15.4238 36.6148 14.9145 36.3211 14.6643ZM23.1459 28.6607L21.5084 33.0607L19.8708 27.5607L32.4254 18.2107L23.1459 28.6607Z" fill="#003057"/>
</svg>
