<svg width="49" height="49" viewBox="0 0 49 49" fill="none" xmlns="http://www.w3.org/2000/svg">
<rect x="1.13147" y="1.36182" width="47" height="47" rx="4.5" stroke="#003057"/>
<path d="M30.3241 12.0307L29.654 10.9741H25.5987V20.4904L25.5849 29.7856C25.5918 29.8547 25.5987 29.9306 25.5987 29.9997C25.5987 32.327 23.7058 34.2261 21.3707 34.2261C19.0356 34.2261 17.1427 32.3339 17.1427 29.9997C17.1427 27.6724 19.0356 25.7733 21.3707 25.7733C21.8543 25.7733 22.3241 25.8631 22.7593 26.015V21.3743C22.3103 21.2983 21.8474 21.2569 21.3707 21.2569C16.5555 21.2638 12.6315 25.1863 12.6315 30.0066C12.6315 34.8269 16.5555 38.7494 21.3776 38.7494C26.1997 38.7494 30.1237 34.8269 30.1237 30.0066V18.9504C31.8716 20.6975 34.1306 22.4033 36.6315 22.9488V18.2045C33.9165 17.0029 31.2153 13.4533 30.3241 12.0307Z" fill="#003057"/>
</svg>
