<svg width="49" height="49" viewBox="0 0 49 49" fill="none" xmlns="http://www.w3.org/2000/svg">
<rect x="1.13147" y="1.36182" width="47" height="47" rx="4.5" stroke="#003057"/>
<path d="M35.692 19.7667C35.0854 18.4192 34.2147 17.2094 33.1091 16.1667C32.0035 15.1339 30.7218 14.3176 29.2934 13.7471C27.816 13.1569 26.2506 12.8618 24.6363 12.8618C23.022 12.8618 21.4565 13.1569 19.9791 13.7471C18.5507 14.3176 17.269 15.1241 16.1634 16.1667C15.0579 17.2094 14.1871 18.4192 13.5805 19.7667C12.9544 21.1635 12.6315 22.6585 12.6315 24.1929C12.6315 26.8782 13.6294 29.4552 15.459 31.5011L14.4806 36.8618L19.6856 34.5306C21.2413 35.1995 22.8948 35.5339 24.6265 35.5339C26.2408 35.5339 27.8063 35.2388 29.2836 34.6487C30.7121 34.0782 31.9937 33.2716 33.0993 32.229C34.2049 31.1864 35.0756 29.9766 35.6822 28.629C36.3084 27.2323 36.6313 25.7372 36.6313 24.2028C36.6411 22.6585 36.3182 21.1733 35.692 19.7667Z" fill="#003057"/>
<path d="M29.5087 26.4552C29 26.1995 28.6282 26.0421 28.3641 25.9438C28.1977 25.8847 27.8064 25.7077 27.6694 25.8159C27.2389 26.17 26.7791 27.1733 26.2899 27.3601C25.0767 27.1241 23.9515 26.288 23.071 25.4323C22.6796 25.0585 21.9556 23.9962 21.7991 23.711C21.7697 23.4159 22.2981 23.0224 22.4155 22.7962C23.0221 22.1077 22.5622 21.6749 22.484 21.3897C22.347 21.0946 22.1122 20.5634 21.9067 20.1307C21.7306 19.8454 21.6914 19.4225 21.3783 19.2651C20.0477 18.5766 19.2846 19.9536 18.9715 20.6716C17.0833 25.2454 28.4325 33.9503 30.7415 27.9503C30.8589 27.429 30.81 27.2323 30.6339 26.9962C30.2817 26.7503 29.8707 26.6421 29.5087 26.4552Z" fill="white"/>
</svg>
